<?xml version="1.0" encoding="UTF-8" standalone="no"?>
<svg
   xmlns:dc="http://purl.org/dc/elements/1.1/"
   xmlns:cc="http://creativecommons.org/ns#"
   xmlns:rdf="http://www.w3.org/1999/02/22-rdf-syntax-ns#"
   xmlns:svg="http://www.w3.org/2000/svg"
   xmlns="http://www.w3.org/2000/svg"
   xmlns:sodipodi="http://sodipodi.sourceforge.net/DTD/sodipodi-0.dtd"
   xmlns:inkscape="http://www.inkscape.org/namespaces/inkscape"
   height="512px"
   style="enable-background:new 0 0 512 512;"
   version="1.1"
   viewBox="0 0 512 512"
   width="512px"
   xml:space="preserve"
   id="svg10"
   sodipodi:docname="youtube__social_media__icons_2986210.svg"
   inkscape:version="0.92.2 (5c3e80d, 2017-08-06)"><metadata
     id="metadata16"><rdf:RDF><cc:Work
         rdf:about=""><dc:format>image/svg+xml</dc:format><dc:type
           rdf:resource="http://purl.org/dc/dcmitype/StillImage" /></cc:Work></rdf:RDF></metadata><defs
     id="defs14" /><sodipodi:namedview
     pagecolor="#ffffff"
     bordercolor="#666666"
     borderopacity="1"
     objecttolerance="10"
     gridtolerance="10"
     guidetolerance="10"
     inkscape:pageopacity="0"
     inkscape:pageshadow="2"
     inkscape:window-width="724"
     inkscape:window-height="480"
     id="namedview12"
     showgrid="false"
     inkscape:zoom="0.4609375"
     inkscape:cx="256"
     inkscape:cy="256"
     inkscape:window-x="0"
     inkscape:window-y="0"
     inkscape:window-maximized="0"
     inkscape:current-layer="svg10" /><g
     id="youtube__x2C__social__x2C_media__x2C__icons_x2C_"
     style="fill:#ffffff"><g
       id="g6"
       style="fill:#ffffff"><polygon
         points="222.899,205.461 222.91,227.346 222.925,299.326     309.446,252.567 261.923,226.722   "
         style="fill-rule:evenodd;clip-rule:evenodd;fill:#ffffff"
         id="polygon2" /><path
         d="M434.478,16H77.519C43.718,16,16,43.717,16,77.521v356.957    C16,468.286,43.718,496,77.519,496h356.959C468.281,496,496,468.286,496,434.479V77.521C496,43.717,468.281,16,434.478,16z     M416,247.932v20.656c0,27.054-3.129,54.085-3.129,54.085s-3.072,23.013-12.678,33.141    c-12.177,13.327-25.816,13.378-32.048,14.169c-44.861,3.352-112.157,3.482-112.157,3.482s-83.288-0.813-108.927-3.367    c-7.103-1.385-23.119-0.957-35.339-14.27c-9.58-10.121-12.608-33.155-12.608-33.155S96,295.642,96,268.588v-22.075v-3.257    c0-27.028,3.116-54.057,3.116-54.057s3.078-23.03,12.658-33.169c12.221-13.303,25.828-13.142,32.089-13.893    C188.677,138.76,255.924,139,255.924,139h0.148c0,0,67.234-0.24,112.096,3.116c6.231,0.772,19.893,0.732,32.069,14.035    c9.605,10.116,12.634,33.098,12.634,33.098S416,216.228,416,243.256V247.932z"
         style="fill-rule:evenodd;clip-rule:evenodd;fill:#ffffff"
         id="path4" /></g></g><g
     id="Layer_1" /></svg>